PathFileType	4	(X/Y/Z)	D:\TRACE\spot_10-12-23\spot_arm_body_motion_3_4-platform.trc
DataRate	CameraRate	NumFrames	NumMarkers	Units	OrigDataRate	OrigDataStartFrame	OrigNumFrames
100.00	100.00	      24	5	mm	100.00	3501	      7000
Frame#	Time	Left_Front			Right_Front			Left_Aft			Right_Aft			Post			
		X1	Y1	Z1	X2	Y2	Z2	X3	Y3	Z3	X4	Y4	Z4	X5	Y5	Z5	

3501	35.000	-796.52545	-18.86493	-647.29407	775.91754	-14.19298	-640.38983	-713.55725	22.11186	490.06583	703.54950	29.63579	576.30054	-13.05926	706.35394	-992.00452	
3502	35.010	-795.86920	-19.38740	-647.28210	776.80145	-14.61165	-640.30798	-713.05408	22.38567	489.96683	704.33563	30.08938	576.22284	-12.43112	705.80524	-992.33179	
3503	35.020	-795.14789	-19.69196	-647.33026	777.61237	-14.97398	-640.24432	-712.35815	22.68594	489.88770	705.00983	30.58769	576.11755	-11.81311	705.41547	-992.75323	
3504	35.030	-794.21033	-20.33770	-647.39740	778.05139	-15.28239	-640.43585	-711.79211	22.96384	489.81442	705.46069	30.82200	575.99945	-11.21995	704.90588	-993.40625	
3505	35.040	-793.61322	-20.72261	-647.49091	778.66174	-15.71611	-640.49133	-711.09296	23.04410	489.65271	706.13507	30.95869	575.88330	-10.24058	704.09369	-994.00012	
3506	35.050	-793.43524	-20.79024	-647.53058	779.27185	-15.92699	-640.71881	-710.37805	23.21348	489.53915	706.94495	31.27029	575.83502	-9.76730	703.60529	-994.61200	
3507	35.060	-792.35913	-21.38008	-647.74658	780.19385	-16.29091	-640.61188	-709.71210	23.53437	489.44653	707.47626	31.57269	575.74579	-9.11213	703.02820	-995.31146	
3508	35.070	-791.87262	-21.62589	-647.67834	780.91113	-16.62429	-640.60474	-709.13989	23.87616	489.39584	708.20599	32.03117	575.68079	-8.76234	702.41144	-995.83997	
3509	35.080	-791.04236	-22.14931	-647.77924	781.34436	-16.79342	-640.68115	-708.45898	24.27322	489.30960	708.78357	32.27377	575.47266	-7.87922	701.79950	-996.80963	
3510	35.090	-790.71198	-22.27075	-647.75549	781.94196	-17.31990	-640.81189	-707.68738	24.52503	489.25192	709.53363	32.56094	575.37366	-7.36029	701.22064	-997.47272	
3511	35.100	-790.04852	-22.84773	-647.86804	782.53088	-17.94561	-640.92712	-707.21088	24.66599	489.23322	710.20013	32.85480	575.35089	-6.49216	700.60925	-998.10760	
3512	35.110	-789.29517	-23.29473	-648.02173	783.44812	-18.50206	-640.95508	-706.44720	24.88870	489.17053	710.79999	33.20872	575.25085	-5.84099	700.02948	-998.40228	
3513	35.120	-788.49982	-23.85276	-648.07074	784.17883	-18.86119	-640.97327	-705.86115	25.15984	489.03473	711.61096	33.58103	575.00598	-5.03972	699.48505	-998.78955	
3514	35.130	-787.88672	-23.94167	-648.12903	784.71350	-19.16451	-641.10577	-704.97662	25.34754	488.80515	712.06195	33.75622	574.90314	-4.29596	698.94916	-999.35901	
3515	35.140	-787.46796	-24.24636	-648.05267	785.38080	-19.58965	-641.19849	-704.29663	25.57982	488.81924	712.90497	34.09858	574.85529	-3.86372	698.39203	-999.70563	
3516	35.150	-786.43188	-24.77227	-648.32916	785.79205	-19.79848	-641.44342	-703.73834	25.69217	488.65964	713.62518	34.31377	574.85590	-3.44189	697.75275	-1000.07971	
3517	35.160	-785.67694	-25.00268	-648.42639	786.45551	-20.16869	-641.61987	-703.17554	25.91888	488.61264	714.41815	34.65179	574.69849	-2.75440	697.24677	-1000.31720	
3518	35.170	-785.40662	-25.03777	-648.51996	787.18213	-20.49343	-641.54816	-702.43317	26.21312	488.53192	714.89606	34.87469	574.54205	-1.92445	696.71094	-1000.63129	
3519	35.180	-784.67920	-25.37499	-648.54480	787.81702	-20.74821	-641.44849	-701.76733	26.51674	488.41855	715.41815	35.07355	574.46899	-1.54084	696.29095	-1000.85596	
3520	35.190	-784.07214	-25.71670	-648.55396	788.54016	-21.09757	-641.38043	-701.13953	26.87226	488.51248	716.21167	35.49512	574.43591	-0.91614	695.89484	-1001.27924	
3521	35.200	-783.17847	-26.11890	-648.68896	789.16150	-21.26358	-641.40210	-700.41638	26.99872	488.39786	717.13776	35.75605	574.36749	0.03274	695.47949	-1001.67316	
3522	35.210	-782.58887	-26.42925	-648.67200	790.22797	-21.73585	-641.59589	-699.75800	27.17888	487.99771	717.68329	35.93898	574.27527	0.87549	694.96588	-1001.95679	
3523	35.220	-782.04303	-26.72239	-648.74261	790.78418	-22.07800	-641.63562	-698.90466	27.27055	488.31375	718.11804	36.05030	574.18396	1.44753	694.54443	-1002.36469	
3524	35.230	-781.11237	-27.35968	-648.73663	791.20276	-22.23933	-641.79803	-698.41888	27.46204	487.90903	718.85675	36.36182	574.11377	2.27410	694.12299	-1002.88947	
